Coordinates
version=1
nRows=17
nColumns=40
inDegrees=yes

Units are S.I. units (second, meters, Newtons, ...)
Angles are in degrees.

endheader
time	pelvis_tilt	pelvis_list	pelvis_rotation	pelvis_tx	pelvis_ty	pelvis_tz	hip_flexion_r	hip_adduction_r	hip_rotation_r	knee_angle_r	knee_angle_r_beta	ankle_angle_r	subtalar_angle_r	mtp_angle_r	hip_flexion_l	hip_adduction_l	hip_rotation_l	knee_angle_l	knee_angle_l_beta	ankle_angle_l	subtalar_angle_l	mtp_angle_l	lumbar_extension	lumbar_bending	lumbar_rotation	arm_flex_r	arm_add_r	arm_rot_r	elbow_flex_r	pro_sup_r	wrist_flex_r	wrist_dev_r	arm_flex_l	arm_add_l	arm_rot_l	elbow_flex_l	pro_sup_l	wrist_flex_l	wrist_dev_l
     11.51250000	     -3.83454946	     -6.29978405	      5.16870814	      1.02226767	      0.93014836	      0.48533027	      9.09075789	      4.26168032	    -18.35597739	     13.07682838	     13.07682838	      9.38785412	     -3.78399094	     -5.82485270	     37.65913733	    -11.18260407	      4.83008057	     57.72203502	     57.72203502	     11.75241185	    -19.24628165	     19.28943173	    -12.98076303	      5.58807620	      4.31871749	      9.95396296	    -13.86955016	     -5.29263814	     61.15565166	     45.16061768	      0.00000000	      0.00000000	      3.77258512	     -8.23113378	     -2.31899281	     65.51360655	     47.46047432	      0.00000000	      0.00000000
     11.52357143	     -3.97262760	     -6.26593999	      5.55393487	      1.02119014	      0.92998748	      0.48475164	      8.54084273	      4.29284688	    -18.53899347	     12.63948259	     12.63948259	      9.58811886	     -3.79804378	     -5.98318999	     38.39282662	    -10.55714517	      5.20254654	     54.82579033	     54.82579033	     11.21638153	    -19.13167489	     18.26723481	    -12.92954670	      5.56386343	      4.66858270	     11.59035839	    -14.65965267	     -4.86136820	     64.99298131	     45.03463377	      0.00000000	      0.00000000	      4.13847916	     -7.43098892	     -2.10942668	     59.19401954	     47.34364091	      0.00000000	      0.00000000
     11.53464286	     -4.08370944	     -6.17147408	      5.89966361	      1.02021327	      0.92977349	      0.48402667	      7.98452639	      4.24050252	    -18.69197124	     12.28755081	     12.28755081	      9.85655141	     -3.78367024	     -6.12801984	     38.87782330	     -9.83664351	      5.60741710	     51.70443623	     51.70443623	     10.62917567	    -18.95212398	     17.05341975	    -12.94459502	      5.47117238	      4.72487233	     13.61062849	    -15.03740997	     -5.05931084	     68.53017211	     44.95207216	      0.00000000	      0.00000000	      3.91644764	     -7.07636495	     -1.48050983	     54.29811983	     47.20612388	      0.00000000	      0.00000000
     11.54571429	     -4.17959182	     -6.03333974	      6.19120028	      1.01934699	      0.92950446	      0.48323719	      7.42771999	      4.13946772	    -18.77148233	     11.99516578	     11.99516578	     10.17572920	     -3.82060450	     -6.20062060	     39.18736858	     -9.04550498	      6.10683183	     48.50672603	     48.50672603	     10.44343315	    -18.60860710	     16.90076124	    -13.00976400	      5.27392964	      4.06829695	     16.51396131	    -14.71105482	     -5.25158470	     70.98263624	     44.89445570	      0.00000000	      0.00000000	      2.55695024	     -7.19642247	     -1.09306239	     51.72366332	     47.12336405	      0.00000000	      0.00000000
     11.55678571	     -4.31413426	     -6.02174917	      6.41505103	      1.01867944	      0.92902489	      0.48237604	      6.88511794	      4.14856597	    -19.01805028	     11.66099004	     11.66099004	     10.48520291	     -3.46004358	     -6.38556510	     39.35539730	     -8.47891618	      6.57662195	     45.10782685	     45.10782685	      9.55085862	    -18.07312468	     14.48658647	    -12.91252989	      5.30498394	      4.47927631	     18.54500443	    -15.56866140	     -4.69476176	     74.38650404	     44.79800158	      0.00000000	      0.00000000	      3.08731915	     -6.57768529	     -0.53355239	     45.15229804	     46.97550027	      0.00000000	      0.00000000
     11.56785714	     -4.40611742	     -5.98936948	      6.56767077	      1.01823614	      0.92847540	      0.48152932	      6.30002290	      4.15355875	    -19.08596526	     11.36924154	     11.36924154	     10.88213989	     -3.23508842	     -6.45901736	     39.33390910	     -7.97292893	      7.02051155	     41.72437008	     41.72437008	      9.04419163	    -17.22440906	     12.78399945	    -12.89990685	      5.26156794	      4.46507600	     21.00490326	    -15.68661159	     -4.91475469	     77.31847075	     44.75149038	      0.00000000	      0.00000000	      2.62933712	     -6.36982432	      0.02767701	     41.00777894	     46.83771346	      0.00000000	      0.00000000
     11.57892857	     -4.45178441	     -5.90885166	      6.63549676	      1.01802872	      0.92791837	      0.48070192	      5.67786538	      4.11124959	    -19.10171282	     11.13885528	     11.13885528	     11.23352556	     -3.12295267	     -6.54138103	     39.18835178	     -7.54926335	      7.29440110	     38.52917741	     38.52917741	      9.26330898	    -15.90357202	     12.66829396	    -12.94441968	      5.09664661	      4.19068404	     23.91533889	    -15.37789004	     -5.01219648	     79.46899295	     44.70317220	      0.00000000	      0.00000000	      1.23023303	     -6.44098825	      0.31363189	     39.02822389	     46.76651116	      0.00000000	      0.00000000
     11.59000000	     -4.50049267	     -5.95072540	      6.67598503	      1.01811496	      0.92717967	      0.47984447	      5.01708222	      4.20008197	    -19.18533970	     10.84075912	     10.84075912	     11.61448400	     -2.76198267	     -6.62901783	     38.99226537	     -7.33445411	      7.50763888	     35.49893976	     35.49893976	      9.50577031	    -14.35848411	     12.31080999	    -12.92840619	      5.11357338	      3.90372847	     26.78254064	    -15.14167766	     -4.71451311	     81.72415096	     44.64124803	      0.00000000	      0.00000000	      0.14036335	     -6.40884405	      0.73083700	     36.21478976	     46.67654071	      0.00000000	      0.00000000
     11.60107143	     -4.56786909	     -6.03654781	      6.63625705	      1.01842221	      0.92628343	      0.47891472	      4.37856988	      4.30092219	    -19.34186119	     10.59175201	     10.59175201	     12.14471875	     -2.08241694	     -6.54978504	     38.71653425	     -7.25709240	      7.55243912	     32.59670620	     32.59670620	      9.36888972	    -13.00033756	     11.19675111	    -12.80138558	      5.21479813	      4.35347674	     29.24348333	    -15.76652066	     -4.00744988	     83.98341094	     44.59726166	      0.00000000	      0.00000000	      0.23891099	     -6.07389171	      1.58693656	     31.06359859	     46.50247394	      0.00000000	      0.00000000
     11.61214286	     -4.58144328	     -6.08047126	      6.53761601	      1.01905559	      0.92534016	      0.47801406	      3.67758056	      4.38462041	    -19.24717414	     10.36427633	     10.36427633	     12.59043663	     -1.77314931	     -6.62407965	     38.32935541	     -7.21583609	      7.44053198	     30.04496246	     30.04496246	      9.69094417	    -11.69233479	     11.35012530	    -12.77781133	      5.19324334	      4.29257782	     31.94756383	    -15.41062320	     -4.06401626	     85.84509785	     44.55973108	      0.00000000	      0.00000000	     -1.17368136	     -6.12115250	      1.82969900	     29.53389389	     46.43228552	      0.00000000	      0.00000000
     11.62321429	     -4.56651782	     -6.14925666	      6.39836635	      1.02003093	      0.92432869	      0.47706678	      2.90623647	      4.48918571	    -19.21192805	     10.11157561	     10.11157561	     13.06109959	     -1.30624525	     -6.65621549	     37.86583912	     -7.27368710	      7.11008657	     27.82628032	     27.82628032	      9.97522350	    -10.60876133	     11.56836837	    -12.69227653	      5.19981636	      4.22108378	     34.65336732	    -15.06687814	     -3.82129335	     87.63162347	     44.51615387	      0.00000000	      0.00000000	     -2.46559719	     -6.13311789	      2.17370243	     27.77802735	     46.34775991	      0.00000000	      0.00000000
     11.63428571	     -4.62321087	     -6.27764346	      6.20969209	      1.02117668	      0.92299655	      0.47601199	      2.23087057	      4.62948102	    -19.15241885	      9.91491906	      9.91491906	     13.57564302	     -0.84180714	     -6.67722326	     37.51372682	     -7.39628946	      6.71602634	     26.06599971	     26.06599971	     10.15366244	     -9.94195676	     11.82893754	    -12.51460210	      5.30314871	      4.34244778	     37.21356504	    -14.90664677	     -3.57481643	     89.09522441	     44.48164845	      0.00000000	      0.00000000	     -3.74257669	     -6.10935550	      2.50369406	     26.27630118	     46.26544231	      0.00000000	      0.00000000
     11.64535714	     -4.81985550	     -6.52561003	      5.90989204	      1.02258789	      0.92122666	      0.47507154	      1.76912779	      4.86629448	    -18.90411124	      9.84383952	      9.84383952	     14.05334070	     -0.56702829	     -6.81147692	     37.42497201	     -7.66408605	      6.28274463	     24.92617575	     24.92617575	     10.17790684	     -9.78160305	     12.06587597	    -12.04443109	      5.42762737	      4.88163376	     39.39656724	    -15.14539859	     -3.74250638	     90.00522686	     44.46938361	      0.00000000	      0.00000000	     -5.21152244	     -6.13232147	      2.58051720	     25.47856829	     46.22543770	      0.00000000	      0.00000000
     11.65642857	     -4.68529023	     -6.50124466	      5.71822615	      1.02435748	      0.92005644	      0.47376625	      0.80124040	      4.83968043	    -18.88393575	      9.60973391	      9.60973391	     14.67735981	      0.01507318	     -6.69545327	     36.69217705	     -7.72891791	      5.51918075	     23.76356484	     23.76356484	     10.00598449	     -9.61346688	     12.29504465	    -12.10678295	      5.41682774	      4.49531747	     41.96093803	    -14.27206915	     -3.08233518	     91.86585339	     44.40844962	      0.00000000	      0.00000000	     -6.52773764	     -6.11664617	      2.99447100	     24.09206476	     46.12475590	      0.00000000	      0.00000000
     11.66750000	     -4.90148824	     -6.67843368	      5.37873664	      1.02629067	      0.91806030	      0.47261819	      0.31225208	      4.96843534	    -18.59169479	      9.54711785	      9.54711785	     15.19402339	      0.30070237	     -6.78652053	     36.59851126	     -7.99292094	      4.82501124	     23.40982362	     23.40982362	      9.70278119	     -9.90615151	     12.47585340	    -11.53180954	      5.46531117	      5.01396679	     43.75811672	    -14.40855464	     -3.16488977	     92.59483056	     44.39752087	      0.00000000	      0.00000000	     -7.99497776	     -6.15807315	      3.05441124	     23.43782745	     46.08516656	      0.00000000	      0.00000000
     11.67857143	     -4.85215186	     -6.72034622	      5.11926246	      1.02844618	      0.91644202	      0.47105816	     -0.45200879	      4.87318533	    -18.90631207	      9.67786655	      9.67786655	     16.54341135	      1.66212103	     -5.02693898	     35.96139717	     -8.09182682	      4.23603720	     22.90129777	     22.90129777	      8.27780123	    -10.83105924	     10.74844183	    -11.41936688	      5.55094634	      4.33709224	     46.45674739	    -13.73366119	     -1.23871776	     93.69338493	     44.37626109	      0.00000000	      0.00000000	     -9.75640571	     -6.22098475	      4.71896874	     22.94670690	     45.67740867	      0.00000000	      0.00000000
     11.68964286	     -5.03687554	     -6.78465983	      4.71918380	      1.03073721	      0.91444199	      0.46971872	     -0.98382984	      4.84634588	    -18.51371979	      9.66380825	      9.66380825	     17.01784002	      1.83718483	     -5.11810782	     35.78274657	     -8.32118521	      3.42410178	     23.11274256	     23.11274256	      7.64310494	    -11.33610569	     10.94242382	    -10.87659706	      5.49227827	      4.78303582	     47.97693012	    -13.72944390	     -1.43137617	     94.39891625	     44.36875922	      0.00000000	      0.00000000	    -11.18254177	     -6.25865948	      4.75571927	     22.48086682	     45.64123497	      0.00000000	      0.00000000
